<svg xmlns="http://www.w3.org/2000/svg" viewBox="0 0 1440 320" preserveAspectRatio="none"><path fill="#fff" fill-opacity="1" d="M0,32L26.7,32C53.3,32,107,32,160,64C213.3,96,267,160,320,170.7C373.3,181,427,139,480,112C533.3,85,587,75,640,69.3C693.3,64,747,64,800,85.3C853.3,107,907,149,960,149.3C1013.3,149,1067,107,1120,112C1173.3,117,1227,171,1280,170.7C1333.3,171,1387,117,1413,90.7L1440,64L1440,320L1413.3,320C1386.7,320,1333,320,1280,320C1226.7,320,1173,320,1120,320C1066.7,320,1013,320,960,320C906.7,320,853,320,800,320C746.7,320,693,320,640,320C586.7,320,533,320,480,320C426.7,320,373,320,320,320C266.7,320,213,320,160,320C106.7,320,53,320,27,320L0,320Z"></path></svg>